<svg xmlns="http://www.w3.org/2000/svg" viewBox="0 0 892.23 445.26"><defs><style>.cls-1{fill:#00bdac;}.cls-2{fill:#eaeaea;}.cls-3{fill:#fff;}</style></defs><g id="Layer_2" data-name="Layer 2"><g id="Layer_1-2" data-name="Layer 1"><polygon class="cls-1" points="524.97 64.05 396.88 192.14 268.78 64.05 332.83 0 460.93 0 524.97 64.05"/><polygon class="cls-2" points="487.17 69.32 441.87 114.62 441.87 24.02 487.17 69.32"/><polygon class="cls-2" points="441.87 114.62 396.57 159.92 396.57 69.32 441.87 114.62"/><polygon class="cls-2" points="396.57 69.32 351.27 114.62 305.97 69.32 396.57 69.32"/><polygon class="cls-2" points="441.87 24.02 396.57 69.32 351.27 24.02 441.87 24.02"/><path class="cls-3" d="M7.58,318.63V212.46h59v11.83H31.14v35.39H54.81V271.4H31.14v35.39H66.53v11.84Z"/><path class="cls-3" d="M90.2,318.63V236h23.55v11.84c.48-4,1.71-6.95,3.68-8.91s4.69-2.93,8.16-2.93h11.83A22.58,22.58,0,0,1,154,243,22.87,22.87,0,0,1,161,259.68v58.95H137.42V259.68a11.84,11.84,0,0,0-23.67,0v58.95Z"/><path class="cls-3" d="M255.32,236v94.45A23.85,23.85,0,0,1,231.76,354H208.09q-20.85,0-23.56-23.56h11.84q.82,11.73,11.72,11.73h11.83a11.49,11.49,0,0,0,8.33-3.46,11.21,11.21,0,0,0,3.51-8.27V306.79q-1.38,11.83-11.84,11.84H208.09a23.7,23.7,0,0,1-23.56-23.56V259.68A23.75,23.75,0,0,1,208.09,236Zm-23.56,11.84H219.92a11.9,11.9,0,0,0-11.83,11.83v35.39a11.84,11.84,0,0,0,23.67,0Z"/><path class="cls-3" d="M278.87,224.29V212.46h23.56v11.83Zm0,94.34V236h23.56v82.62Z"/><path class="cls-3" d="M326.1,318.63V236h23.55v11.84c.48-4,1.71-6.95,3.68-8.91S358,236,361.49,236h11.83a22.58,22.58,0,0,1,16.62,7,22.87,22.87,0,0,1,6.94,16.67v58.95H373.32V259.68a11.84,11.84,0,0,0-23.67,0v58.95Z"/><path class="cls-3" d="M491.21,283.24H444v11.83a11.85,11.85,0,0,0,11.83,11.72h11.84q11.71,0,11.72-11.72h11.83q-2.76,23.55-23.55,23.56H444a23.7,23.7,0,0,1-23.56-23.56V259.68A23.75,23.75,0,0,1,444,236h23.67a22.58,22.58,0,0,1,16.62,7,22.86,22.86,0,0,1,6.93,16.67ZM444,271.4h23.67V259.68a11.84,11.84,0,0,0-23.67,0Z"/><path class="cls-3" d="M585.55,283.24H538.33v11.83a11.83,11.83,0,0,0,11.83,11.72H562q11.73,0,11.73-11.72h11.83q-2.76,23.55-23.56,23.56H538.33a23.7,23.7,0,0,1-23.56-23.56V259.68A23.75,23.75,0,0,1,538.33,236H562a22.56,22.56,0,0,1,16.62,7,22.83,22.83,0,0,1,6.94,16.67ZM538.33,271.4H562V259.68a11.83,11.83,0,0,0-23.66,0Z"/><path class="cls-3" d="M632.66,318.63H609.11V236h23.55v23.67q1.38-11.84,7.3-17.75T656.33,236h11.73v23.67H644.5a11.4,11.4,0,0,0-8.35,3.46,11.24,11.24,0,0,0-3.49,8.26Z"/><path class="cls-3" d="M679.89,224.29V212.46h23.56v11.83Zm0,94.34V236h23.56v82.62Z"/><path class="cls-3" d="M727.11,318.63V236h23.56v11.84c.48-4,1.71-6.95,3.68-8.91S759,236,762.5,236h11.84A22.58,22.58,0,0,1,791,243a22.86,22.86,0,0,1,6.93,16.67v58.95H774.34V259.68a11.84,11.84,0,0,0-23.67,0v58.95Z"/><path class="cls-3" d="M892.23,236v94.45A23.84,23.84,0,0,1,868.67,354H845q-20.85,0-23.56-23.56h11.83q.84,11.73,11.73,11.73h11.83a11.47,11.47,0,0,0,8.32-3.46,11.21,11.21,0,0,0,3.51-8.27V306.79q-1.38,11.83-11.83,11.84H845a23.7,23.7,0,0,1-23.56-23.56V259.68A23.75,23.75,0,0,1,845,236Zm-23.56,11.84H856.84A11.88,11.88,0,0,0,845,259.68v35.39a11.83,11.83,0,0,0,23.66,0Z"/><path class="cls-3" d="M45.53,408.67h2.4c.31,1.72.58,3.88.83,6.49a52.81,52.81,0,0,1,.18,7.61,11.54,11.54,0,0,1-3.32,1.79,32.23,32.23,0,0,1-4.1,1.16,35.64,35.64,0,0,1-4.42.64c-1.51.12-2.94.19-4.29.19a44.54,44.54,0,0,1-13.82-2,26.23,26.23,0,0,1-10.28-6,26.54,26.54,0,0,1-6.45-10.37,44.43,44.43,0,0,1-2.26-15,41.94,41.94,0,0,1,2.49-15.35,28.16,28.16,0,0,1,6.73-10.32,25.9,25.9,0,0,1,9.86-5.85,37.61,37.61,0,0,1,11.8-1.85,56.53,56.53,0,0,1,10.23.79A27.54,27.54,0,0,1,48.39,363q0,1.47-.09,3.45c-.06,1.33-.16,2.72-.28,4.2s-.28,2.92-.46,4.33-.37,2.71-.55,3.87h-2.4l-4.79-13.27a9.06,9.06,0,0,0-3.36-.74c-1.56-.12-3.11-.18-4.64-.18a22.43,22.43,0,0,0-8.68,1.7A19.17,19.17,0,0,0,16,371.57a26.37,26.37,0,0,0-4.91,8.94,39.18,39.18,0,0,0-1.84,12.67A39.72,39.72,0,0,0,10.87,405a25.91,25.91,0,0,0,4.78,9,20.62,20.62,0,0,0,7.63,5.71,25.08,25.08,0,0,0,10.2,2,23,23,0,0,0,5.05-.46,5,5,0,0,0,2.67-1.2Z"/><path class="cls-3" d="M58.25,402.4a32,32,0,0,1,1.52-10.28,21,21,0,0,1,4.38-7.56,18.72,18.72,0,0,1,6.87-4.7,23.69,23.69,0,0,1,8.89-1.61A25.19,25.19,0,0,1,89.77,380a17.37,17.37,0,0,1,6.78,4.93,20.55,20.55,0,0,1,3.87,7.6,36.42,36.42,0,0,1,1.24,9.87q0,11.61-5.9,17.88t-15.85,6.27a24.55,24.55,0,0,1-9.58-1.71A17.45,17.45,0,0,1,63.6,420a21,21,0,0,1-4-7.65A34.58,34.58,0,0,1,58.25,402.4Zm8.85,0a37.73,37.73,0,0,0,.78,7.83,19.5,19.5,0,0,0,2.49,6.41,12.47,12.47,0,0,0,4.47,4.28,13.23,13.23,0,0,0,6.64,1.57q5,0,8.16-4.88t3.18-15.21a37.58,37.58,0,0,0-.79-7.88,20.12,20.12,0,0,0-2.44-6.36,12.71,12.71,0,0,0-4.24-4.29,11.73,11.73,0,0,0-6.18-1.57,10.13,10.13,0,0,0-8.75,4.89Q67.1,392.08,67.1,402.4Z"/><path class="cls-3" d="M156,425.44H136.23v-2.3a20.23,20.23,0,0,1,2.26-1.16,19.37,19.37,0,0,1,3.18-1.06V399.63a60,60,0,0,0-.33-6.63,16.55,16.55,0,0,0-1.2-4.94,6.68,6.68,0,0,0-2.53-3,8,8,0,0,0-4.33-1.06,8.43,8.43,0,0,0-3.73.83A10.87,10.87,0,0,0,126.5,387a14.76,14.76,0,0,0-2.3,3.14,17.41,17.41,0,0,0-1.52,3.68v27.1c1,.31,1.92.63,2.81,1a18.49,18.49,0,0,1,2.63,1.25v2.3H108.3v-2.3a24.88,24.88,0,0,1,2.86-1.2c1-.37,2.12-.71,3.22-1V384.7L108.3,384v-2.39a39.92,39.92,0,0,1,6-2.08c2-.52,4.07-.93,6-1.24h2.31v10.41h.09a16.67,16.67,0,0,1,5-7.37,13.05,13.05,0,0,1,8.81-3,19,19,0,0,1,4.24.46,10.55,10.55,0,0,1,3.78,1.7,10,10,0,0,1,2.94,3.46,18,18,0,0,1,1.76,5.72,17.68,17.68,0,0,1,5.34-8.21,13.74,13.74,0,0,1,9.22-3.13,18.32,18.32,0,0,1,5.94.87,8.81,8.81,0,0,1,4.2,3.09,15.07,15.07,0,0,1,2.44,6,48.77,48.77,0,0,1,.78,9.59v23.13a19.15,19.15,0,0,1,6.09,2.22v2.3H163.51v-2.3a26.75,26.75,0,0,1,5.44-2.22V398a49.13,49.13,0,0,0-.32-5.9,13.27,13.27,0,0,0-1.25-4.37,6.59,6.59,0,0,0-2.58-2.77,8.8,8.8,0,0,0-4.42-1,8.34,8.34,0,0,0-6.87,3,19.23,19.23,0,0,0-3.55,7.75v26.17a40.92,40.92,0,0,1,6,2.22Z"/><path class="cls-3" d="M208.3,443.87H187.84v-2.3a33.38,33.38,0,0,1,6.09-2.21V384.7l-6.09-.74v-2.39a39.92,39.92,0,0,1,6-2.08q3.09-.78,6-1.24h2.3v10.32h.09a18.45,18.45,0,0,1,5.16-7.51,13,13,0,0,1,8.67-2.81q8.21,0,12.72,5.44t4.51,17.69a33.81,33.81,0,0,1-1.52,10.51,22.42,22.42,0,0,1-4.33,7.93,18.91,18.91,0,0,1-6.82,5,21.94,21.94,0,0,1-8.89,1.76,26.5,26.5,0,0,1-5.35-.42,22.29,22.29,0,0,1-4.24-1.43v14.66a14.32,14.32,0,0,1,2.95.69,15.92,15.92,0,0,1,3.13,1.52ZM213.19,384a9.39,9.39,0,0,0-7.19,2.86,16.51,16.51,0,0,0-3.78,7.84v25.8A12.77,12.77,0,0,0,206,422a23.34,23.34,0,0,0,5.4.51,9.91,9.91,0,0,0,5.48-1.57A13.11,13.11,0,0,0,221,416.5a24,24,0,0,0,2.62-6.68,35.71,35.71,0,0,0,.93-8.44,37.42,37.42,0,0,0-.6-6.95,17.82,17.82,0,0,0-1.94-5.54,9.8,9.8,0,0,0-3.5-3.64A10.2,10.2,0,0,0,213.19,384Z"/><path class="cls-3" d="M274.94,413.37c0,1.35,0,2.52.09,3.5s.13,2,.19,3.13l6.36.92v1.94a33.52,33.52,0,0,1-5.12,2.12,40.73,40.73,0,0,1-5.39,1.38h-2.3a13.91,13.91,0,0,1-1.11-4.65q-.18-2.54-.27-5.58h-.47a12.94,12.94,0,0,1-4.19,7.1,13.88,13.88,0,0,1-9.26,3.32,12.69,12.69,0,0,1-9.17-3.41,11.85,11.85,0,0,1-3.55-8.95,12.94,12.94,0,0,1,1.7-6.95,11.61,11.61,0,0,1,5-4.29,28.77,28.77,0,0,1,8.2-2.26c3.26-.46,7-.81,11.34-1.06a54.22,54.22,0,0,0,.23-7.14,17.22,17.22,0,0,0-1-5.44,7.58,7.58,0,0,0-2.58-3.5,7.42,7.42,0,0,0-4.47-1.25c-.86,0-1.83.05-2.9.14a10.6,10.6,0,0,0-3.18.79l-4.33,11.06h-2.4c-.61-1.85-1.15-3.75-1.61-5.72a35.08,35.08,0,0,1-.88-5.81,31.35,31.35,0,0,1,7.79-3.31,35.38,35.38,0,0,1,9.54-1.2,17.7,17.7,0,0,1,7.51,1.33A10.82,10.82,0,0,1,273,383a11.87,11.87,0,0,1,1.93,4.7,29,29,0,0,1,.46,5.16c0,3.69-.07,7.24-.23,10.65S274.94,410.23,274.94,413.37Zm-17.79,7.46a8.65,8.65,0,0,0,4.06-.92,10.8,10.8,0,0,0,3-2.21,13.28,13.28,0,0,0,1.93-2.63,11.83,11.83,0,0,0,1-2.26v-9.68a56.21,56.21,0,0,0-8.76.56,14.72,14.72,0,0,0-5.34,1.75,6.43,6.43,0,0,0-2.68,3,10.8,10.8,0,0,0-.73,4.11,8.65,8.65,0,0,0,2,6.13A7.22,7.22,0,0,0,257.15,420.83Z"/><path class="cls-3" d="M336.88,425.44H317.06v-2.3a34.34,34.34,0,0,1,5.44-2.22V399.08q0-7-2-11.06c-1.35-2.7-3.81-4.06-7.37-4.06a11.08,11.08,0,0,0-4.29.83,11.89,11.89,0,0,0-3.5,2.26,15.45,15.45,0,0,0-2.62,3.23,17.61,17.61,0,0,0-1.76,3.73v26.91a16.23,16.23,0,0,1,5.53,2.22v2.3h-19.9v-2.3a30.64,30.64,0,0,1,6.08-2.22V384.7l-6.08-.74v-2.39a41.53,41.53,0,0,1,5.53-1.85c2.08-.55,4.27-1,6.54-1.47h2.3v10.32h.1a20.48,20.48,0,0,1,5.57-7.28,13.27,13.27,0,0,1,8.81-3,23,23,0,0,1,6.59.87,10.29,10.29,0,0,1,4.83,3.09,14.76,14.76,0,0,1,2.95,6,36.55,36.55,0,0,1,1,9.44v23.32a16.07,16.07,0,0,1,6.08,2.22Z"/><path class="cls-3" d="M342.32,384a14.06,14.06,0,0,1-2.54-.92,26.4,26.4,0,0,1-2.35-1.29v-2.4h19.36v2.31a20.06,20.06,0,0,1-5.25,2.3l11.71,27.29L365,417h.19l1.38-5.81L375.32,384a12.8,12.8,0,0,1-5.07-2.21v-2.4H386v2.4a18.3,18.3,0,0,1-5.26,2.21l-14.38,41.48a77,77,0,0,1-4.19,9.54,28.06,28.06,0,0,1-4,5.76,13.61,13.61,0,0,1-4.06,3.09,19.32,19.32,0,0,1-4.47,1.43,26.64,26.64,0,0,1-1.8-3.87c-.52-1.42-1-2.77-1.33-4.06l1.2-2.21h9.58c.37-.5.69-1,1-1.43a16.56,16.56,0,0,0,.88-1.71c.3-.67.64-1.53,1-2.58s.8-2.36,1.29-4Z"/></g></g></svg>