<svg xmlns="http://www.w3.org/2000/svg" viewBox="0 0 892.23 438.23"><defs><style>.cls-1{fill:#474d71;}.cls-2{fill:#00cec6;}</style></defs><g id="Layer_2" data-name="Layer 2"><g id="Layer_1-2" data-name="Layer 1"><polygon class="cls-1" points="524.97 64.05 396.88 192.14 268.78 64.05 332.83 0 460.93 0 524.97 64.05"/><polygon class="cls-2" points="487.17 69.32 441.87 114.62 441.87 24.02 487.17 69.32"/><polygon class="cls-2" points="441.87 114.62 396.57 159.92 396.57 69.32 441.87 114.62"/><polygon class="cls-2" points="396.57 69.32 351.27 114.62 305.97 69.32 396.57 69.32"/><polygon class="cls-2" points="441.87 24.02 396.57 69.32 351.27 24.02 441.87 24.02"/><path class="cls-1" d="M7.58,311.6V205.43h59v11.83H31.14v35.39H54.81v11.73H31.14v35.39H66.53V311.6Z"/><path class="cls-1" d="M90.2,311.6V229h23.55v11.83q.72-6,3.68-8.9c2-2,4.69-2.93,8.16-2.93h11.83A22.6,22.6,0,0,1,154,236,22.89,22.89,0,0,1,161,252.65v59H137.42v-59a11.84,11.84,0,0,0-23.67,0v59Z"/><path class="cls-1" d="M255.32,229v94.45A23.85,23.85,0,0,1,231.76,347H208.09q-20.85,0-23.56-23.55h11.84q.82,11.71,11.72,11.72h11.83a11.46,11.46,0,0,0,8.33-3.46,11.18,11.18,0,0,0,3.51-8.26V299.77q-1.38,11.84-11.84,11.83H208.09A23.7,23.7,0,0,1,184.53,288V252.65A23.75,23.75,0,0,1,208.09,229Zm-23.56,11.83H219.92a11.9,11.9,0,0,0-11.83,11.83V288a11.84,11.84,0,0,0,23.67,0Z"/><path class="cls-1" d="M278.87,217.26V205.43h23.56v11.83Zm0,94.34V229h23.56V311.6Z"/><path class="cls-1" d="M326.1,311.6V229h23.55v11.83q.72-6,3.68-8.9c2-2,4.69-2.93,8.16-2.93h11.83a22.6,22.6,0,0,1,16.62,7,22.89,22.89,0,0,1,6.94,16.67v59H373.32v-59a11.84,11.84,0,0,0-23.67,0v59Z"/><path class="cls-1" d="M491.21,276.21H444V288a11.87,11.87,0,0,0,11.83,11.73h11.84q11.71,0,11.72-11.73h11.83q-2.76,23.57-23.55,23.56H444A23.7,23.7,0,0,1,420.43,288V252.65A23.75,23.75,0,0,1,444,229h23.67a22.6,22.6,0,0,1,16.62,7,22.88,22.88,0,0,1,6.93,16.67ZM444,264.38h23.67V252.65a11.84,11.84,0,0,0-23.67,0Z"/><path class="cls-1" d="M585.55,276.21H538.33V288a11.85,11.85,0,0,0,11.83,11.73H562q11.73,0,11.73-11.73h11.83Q582.79,311.61,562,311.6H538.33A23.7,23.7,0,0,1,514.77,288V252.65A23.75,23.75,0,0,1,538.33,229H562a22.59,22.59,0,0,1,16.62,7,22.85,22.85,0,0,1,6.94,16.67Zm-47.22-11.83H562V252.65a11.83,11.83,0,0,0-23.66,0Z"/><path class="cls-1" d="M632.66,311.6H609.11V229h23.55v23.66Q634,240.83,640,234.9T656.33,229h11.73v23.66H644.5a11.44,11.44,0,0,0-8.35,3.46,11.25,11.25,0,0,0-3.49,8.27Z"/><path class="cls-1" d="M679.89,217.26V205.43h23.56v11.83Zm0,94.34V229h23.56V311.6Z"/><path class="cls-1" d="M727.11,311.6V229h23.56v11.83q.72-6,3.68-8.9c2-2,4.69-2.93,8.15-2.93h11.84A22.6,22.6,0,0,1,791,236a22.88,22.88,0,0,1,6.93,16.67v59H774.34v-59a11.84,11.84,0,0,0-23.67,0v59Z"/><path class="cls-1" d="M892.23,229v94.45A23.84,23.84,0,0,1,868.67,347H845q-20.85,0-23.56-23.55h11.83q.84,11.71,11.73,11.72h11.83a11.43,11.43,0,0,0,8.32-3.46,11.18,11.18,0,0,0,3.51-8.26V299.77q-1.38,11.84-11.83,11.83H845A23.7,23.7,0,0,1,821.45,288V252.65A23.75,23.75,0,0,1,845,229Zm-23.56,11.83H856.84A11.88,11.88,0,0,0,845,252.65V288a11.83,11.83,0,0,0,23.66,0Z"/><path class="cls-2" d="M45.53,401.64h2.4c.31,1.72.58,3.89.83,6.5a52.64,52.64,0,0,1,.18,7.6,11.32,11.32,0,0,1-3.32,1.8,32.23,32.23,0,0,1-4.1,1.15,35.65,35.65,0,0,1-4.42.65q-2.26.18-4.29.18a44.55,44.55,0,0,1-13.82-2,26.13,26.13,0,0,1-10.28-6,26.47,26.47,0,0,1-6.45-10.37,44.43,44.43,0,0,1-2.26-15,41.88,41.88,0,0,1,2.49-15.34,28.21,28.21,0,0,1,6.73-10.33,25.9,25.9,0,0,1,9.86-5.85,37.6,37.6,0,0,1,11.8-1.84,56.63,56.63,0,0,1,10.23.78,27.91,27.91,0,0,1,7.28,2.35c0,1,0,2.14-.09,3.46s-.16,2.72-.28,4.19-.28,2.92-.46,4.33-.37,2.71-.55,3.88h-2.4L39.82,358.5a8.89,8.89,0,0,0-3.36-.73c-1.56-.13-3.11-.19-4.64-.19a22.25,22.25,0,0,0-8.68,1.71A19,19,0,0,0,16,364.54a26.56,26.56,0,0,0-4.91,8.94,39.23,39.23,0,0,0-1.84,12.67A39.79,39.79,0,0,0,10.87,398a26,26,0,0,0,4.78,9,20.76,20.76,0,0,0,7.63,5.72,25.08,25.08,0,0,0,10.2,2,23.63,23.63,0,0,0,5.05-.46,5.18,5.18,0,0,0,2.67-1.2Z"/><path class="cls-2" d="M58.25,395.37a32,32,0,0,1,1.52-10.28,21,21,0,0,1,4.38-7.55,18.6,18.6,0,0,1,6.87-4.7,23.49,23.49,0,0,1,8.89-1.62A25.37,25.37,0,0,1,89.77,373a17.39,17.39,0,0,1,6.78,4.94,20.4,20.4,0,0,1,3.87,7.6,36.4,36.4,0,0,1,1.24,9.86q0,11.61-5.9,17.88t-15.85,6.27a24.55,24.55,0,0,1-9.58-1.71,17.35,17.35,0,0,1-6.73-4.88,21,21,0,0,1-4-7.65A34.53,34.53,0,0,1,58.25,395.37Zm8.85,0a37.83,37.83,0,0,0,.78,7.84,19.53,19.53,0,0,0,2.49,6.4,12.58,12.58,0,0,0,4.47,4.29,13.34,13.34,0,0,0,6.64,1.56q5,0,8.16-4.88t3.18-15.21a37.65,37.65,0,0,0-.79-7.88,20.12,20.12,0,0,0-2.44-6.36,12.59,12.59,0,0,0-4.24-4.28,11.63,11.63,0,0,0-6.18-1.57,10.15,10.15,0,0,0-8.75,4.88Q67.1,385.05,67.1,395.37Z"/><path class="cls-2" d="M156,418.41H136.23v-2.3a20.34,20.34,0,0,1,2.26-1.15,19.37,19.37,0,0,1,3.18-1.06V392.61a60.24,60.24,0,0,0-.33-6.64,16.4,16.4,0,0,0-1.2-4.93,6.63,6.63,0,0,0-2.53-3,7.91,7.91,0,0,0-4.33-1.06,8.3,8.3,0,0,0-3.73.83A10.68,10.68,0,0,0,126.5,380a14.7,14.7,0,0,0-2.3,3.13,17.49,17.49,0,0,0-1.52,3.69v27.1c1,.31,1.92.63,2.81,1a19.64,19.64,0,0,1,2.63,1.25v2.3H108.3v-2.3a24.88,24.88,0,0,1,2.86-1.2c1-.37,2.12-.7,3.22-1V377.67l-6.08-.73v-2.4a38.8,38.8,0,0,1,6-2.07c2-.52,4.07-.94,6-1.25h2.31v10.42h.09a16.65,16.65,0,0,1,5-7.38,13.11,13.11,0,0,1,8.81-3,19.61,19.61,0,0,1,4.24.46,10.57,10.57,0,0,1,3.78,1.71,9.89,9.89,0,0,1,2.94,3.46,17.82,17.82,0,0,1,1.76,5.71,17.65,17.65,0,0,1,5.34-8.2,13.74,13.74,0,0,1,9.22-3.14,18,18,0,0,1,5.94.88,8.68,8.68,0,0,1,4.2,3.09,15,15,0,0,1,2.44,6,48.66,48.66,0,0,1,.78,9.58V413.9a19.13,19.13,0,0,1,6.09,2.21v2.3H163.51v-2.3A26.7,26.7,0,0,1,169,413.9V391a49.13,49.13,0,0,0-.32-5.9,13.4,13.4,0,0,0-1.25-4.38,6.5,6.5,0,0,0-2.58-2.76,8.7,8.7,0,0,0-4.42-1,8.31,8.31,0,0,0-6.87,3,19.25,19.25,0,0,0-3.55,7.74V413.9a39.79,39.79,0,0,1,6,2.21Z"/><path class="cls-2" d="M208.3,436.85H187.84v-2.31a33.38,33.38,0,0,1,6.09-2.21V377.67l-6.09-.73v-2.4a38.8,38.8,0,0,1,6-2.07q3.09-.78,6-1.25h2.3v10.33h.09a18.49,18.49,0,0,1,5.16-7.52,13,13,0,0,1,8.67-2.81q8.21,0,12.72,5.44t4.51,17.7a33.79,33.79,0,0,1-1.52,10.5,22.34,22.34,0,0,1-4.33,7.93,19.05,19.05,0,0,1-6.82,5,21.94,21.94,0,0,1-8.89,1.75,27.39,27.39,0,0,1-5.35-.41,23,23,0,0,1-4.24-1.43v14.65a14.32,14.32,0,0,1,2.95.69,16.51,16.51,0,0,1,3.13,1.52Zm4.89-59.91a9.38,9.38,0,0,0-7.19,2.85,16.51,16.51,0,0,0-3.78,7.84v25.81A13.34,13.34,0,0,0,206,415a23.41,23.41,0,0,0,5.4.5,10,10,0,0,0,5.48-1.56,13.15,13.15,0,0,0,4.15-4.43,23.88,23.88,0,0,0,2.62-6.68,35.68,35.68,0,0,0,.93-8.43,37.6,37.6,0,0,0-.6-7,17.76,17.76,0,0,0-1.94-5.53,9.73,9.73,0,0,0-3.5-3.64A10.2,10.2,0,0,0,213.19,376.94Z"/><path class="cls-2" d="M274.94,406.34c0,1.35,0,2.52.09,3.5s.13,2,.19,3.14l6.36.92v1.93a33.52,33.52,0,0,1-5.12,2.12,39.33,39.33,0,0,1-5.39,1.39h-2.3a14,14,0,0,1-1.11-4.66q-.18-2.54-.27-5.58h-.47a12.78,12.78,0,0,1-1.42,3.74,12.49,12.49,0,0,1-2.77,3.36,13.75,13.75,0,0,1-9.26,3.32,12.69,12.69,0,0,1-9.17-3.41,11.81,11.81,0,0,1-3.55-8.94,13,13,0,0,1,1.7-7,11.61,11.61,0,0,1,5-4.29,28.78,28.78,0,0,1,8.2-2.25c3.26-.47,7-.82,11.34-1.06a54.42,54.42,0,0,0,.23-7.15,17.22,17.22,0,0,0-1-5.44,7.58,7.58,0,0,0-2.58-3.5,7.42,7.42,0,0,0-4.47-1.24c-.86,0-1.83,0-2.9.14a10.58,10.58,0,0,0-3.18.78l-4.33,11.06h-2.4c-.61-1.84-1.15-3.75-1.61-5.71a35.39,35.39,0,0,1-.88-5.81,31.37,31.37,0,0,1,7.79-3.32,35.38,35.38,0,0,1,9.54-1.2,17.69,17.69,0,0,1,7.51,1.34A10.65,10.65,0,0,1,273,376a11.81,11.81,0,0,1,1.93,4.7,29,29,0,0,1,.46,5.16c0,3.68-.07,7.23-.23,10.64S274.94,403.21,274.94,406.34Zm-17.79,7.47a8.53,8.53,0,0,0,4.06-.93,10.8,10.8,0,0,0,3-2.21,13.23,13.23,0,0,0,1.93-2.62,12.41,12.41,0,0,0,1-2.26v-9.68a56.38,56.38,0,0,0-8.76.55,14.91,14.91,0,0,0-5.34,1.75,6.4,6.4,0,0,0-2.68,3,10.75,10.75,0,0,0-.73,4.1,8.63,8.63,0,0,0,2,6.13A7.23,7.23,0,0,0,257.15,413.81Z"/><path class="cls-2" d="M336.88,418.41H317.06v-2.3a33.4,33.4,0,0,1,5.44-2.21V392.05q0-7-2-11.06t-7.37-4.05a10.9,10.9,0,0,0-4.29.83,11.66,11.66,0,0,0-3.5,2.25,15.71,15.71,0,0,0-2.62,3.23,17.85,17.85,0,0,0-1.76,3.73V413.9a16.21,16.21,0,0,1,5.53,2.21v2.3h-19.9v-2.3a30.07,30.07,0,0,1,6.08-2.21V377.67l-6.08-.73v-2.4a40.19,40.19,0,0,1,5.53-1.84c2.08-.56,4.27-1.05,6.54-1.48h2.3v10.33h.1a20.42,20.42,0,0,1,5.57-7.29,13.33,13.33,0,0,1,8.81-3,22.66,22.66,0,0,1,6.59.88,10.14,10.14,0,0,1,4.83,3.09,14.65,14.65,0,0,1,2.95,5.94,36.63,36.63,0,0,1,1,9.45V413.9a16.24,16.24,0,0,1,6.08,2.21Z"/><path class="cls-2" d="M342.32,376.94a15.76,15.76,0,0,1-2.54-.92,24.23,24.23,0,0,1-2.35-1.3v-2.39h19.36v2.3a20.38,20.38,0,0,1-5.25,2.31l11.71,27.28,1.74,5.71h.19l1.38-5.8,8.76-27.19a12.82,12.82,0,0,1-5.07-2.22v-2.39H386v2.39a18.29,18.29,0,0,1-5.26,2.22l-14.38,41.47a75.62,75.62,0,0,1-4.19,9.54,28.06,28.06,0,0,1-4,5.76,13.28,13.28,0,0,1-4.06,3.09,18.85,18.85,0,0,1-4.47,1.43,26.64,26.64,0,0,1-1.8-3.87c-.52-1.41-1-2.77-1.33-4.06l1.2-2.21h9.58a15.39,15.39,0,0,0,1.85-3.13c.3-.68.64-1.54,1-2.58s.8-2.37,1.29-4Z"/></g></g></svg>