<?xml version="1.0" encoding="utf-8"?>
<!-- Generator: Adobe Illustrator 26.3.1, SVG Export Plug-In . SVG Version: 6.00 Build 0)  -->
<svg version="1.1" id="Layer_1" xmlns="http://www.w3.org/2000/svg" xmlns:xlink="http://www.w3.org/1999/xlink" x="0px" y="0px"
	 viewBox="0 0 892.2 438.2" style="enable-background:new 0 0 892.2 438.2;" xml:space="preserve">
<style type="text/css">
	.st0{fill:#474D71;}
	.st1{fill:#394060;}
	.st2{fill:#00CEC6;}
</style>
<g id="Layer_2_00000145053249677936038410000007668406980979613329_">
</g>
<g>
	<path class="st0" d="M66.8,219.5H85v66.9h0.6c3.8-5.4,7.5-10.3,11.1-14.8l43.1-52.1h22.6l-51.1,58.9l55.1,79.9h-21.6l-46.5-68.2
		L85,305.4v52.9H66.8V219.5z"/>
	<path class="st0" d="M271.4,307.6c0,36.9-26,52.9-50.5,52.9c-27.4,0-48.6-19.8-48.6-51.3c0-33.4,22.2-52.9,50.3-52.9
		C251.7,256.4,271.4,277.2,271.4,307.6z M191,308.7c0,21.8,12.8,38.3,30.8,38.3c17.6,0,30.8-16.3,30.8-38.7
		c0-16.9-8.6-38.3-30.4-38.3C200.4,270,191,289.7,191,308.7z"/>
	<path class="st0" d="M294.7,285.6c0-10.3-0.2-18.7-0.8-27h16.3l1.1,16.5h0.4c5-9.5,16.8-18.7,33.5-18.7c14,0,35.8,8.2,35.8,42.4
		v59.5h-18.4v-57.5c0-16.1-6.1-29.4-23.5-29.4c-12.1,0-21.6,8.4-24.7,18.5c-0.8,2.3-1.3,5.4-1.3,8.4v59.9h-18.4V285.6z"/>
	<path class="st0" d="M408.4,339.8c5.4,3.5,15.1,7.2,24.3,7.2c13.4,0,19.7-6.6,19.7-14.8c0-8.6-5.2-13.4-18.9-18.3
		c-18.2-6.4-26.8-16.3-26.8-28.2c0-16.1,13.2-29.2,35-29.2c10.3,0,19.3,2.9,24.9,6.2l-4.6,13.2c-4-2.5-11.3-5.8-20.7-5.8
		c-10.9,0-17,6.2-17,13.6c0,8.2,6.1,11.9,19.3,16.9c17.6,6.6,26.6,15.2,26.6,30.1c0,17.5-13.8,29.9-37.9,29.9
		c-11.1,0-21.4-2.7-28.5-6.8L408.4,339.8z"/>
	<path class="st0" d="M516.1,230v28.6h26.4v13.8h-26.4v53.8c0,12.4,3.6,19.4,13.8,19.4c4.8,0,8.4-0.6,10.7-1.2l0.8,13.6
		c-3.6,1.4-9.2,2.5-16.3,2.5c-8.6,0-15.5-2.7-19.9-7.6c-5.2-5.4-7.1-14.2-7.1-25.9v-54.4h-15.7v-13.8H498v-23.9L516.1,230z"/>
	<path class="st0" d="M563.2,289.7c0-11.7-0.2-21.8-0.8-31.1h16.1l0.6,19.6h0.8c4.6-13.4,15.7-21.8,28.1-21.8c2.1,0,3.6,0.2,5.2,0.6
		v17.1c-1.9-0.4-3.8-0.6-6.3-0.6c-13,0-22.2,9.7-24.7,23.3c-0.4,2.5-0.8,5.4-0.8,8.4v53.1h-18.2V289.7z"/>
	<path class="st0" d="M716.5,331.1c0,10.3,0.2,19.4,0.8,27.2H701l-1-16.3h-0.4c-4.8,8-15.5,18.5-33.5,18.5c-15.9,0-35-8.7-35-43.7
		v-58.3h18.4v55.2c0,18.9,5.9,31.7,22.6,31.7c12.4,0,20.9-8.4,24.3-16.5c1-2.7,1.7-6,1.7-9.3v-61.2h18.4V331.1z"/>
	<path class="st0" d="M819.3,354.6c-4.8,2.5-15.5,5.8-29.1,5.8c-30.6,0-50.5-20.4-50.5-50.9c0-30.7,21.4-52.9,54.5-52.9
		c10.9,0,20.5,2.7,25.6,5.1l-4.2,14c-4.4-2.5-11.3-4.7-21.4-4.7c-23.2,0-35.8,16.9-35.8,37.7c0,23.1,15.1,37.3,35.2,37.3
		c10.5,0,17.4-2.7,22.6-4.9L819.3,354.6z"/>
	<path class="st0" d="M865.8,230v28.6h26.4v13.8h-26.4v53.8c0,12.4,3.6,19.4,13.8,19.4c4.8,0,8.4-0.6,10.7-1.2l0.8,13.6
		c-3.6,1.4-9.2,2.5-16.3,2.5c-8.6,0-15.5-2.7-19.9-7.6c-5.2-5.4-7.1-14.2-7.1-25.9v-54.4h-15.7v-13.8h15.7v-23.9L865.8,230z"/>
</g>
<g>
	<path class="st1" d="M39.2,175H23.3v185.4h15.9c5.5,0,10-4.4,10-9.8V184.8C49.2,179.4,44.7,175,39.2,175z"/>
	<path class="st0" d="M10,175c-5.5,0-10,4.4-10,9.8v165.7c0,5.4,4.5,9.8,10,9.8h13.3V175H10z"/>
</g>
<ellipse class="st2" cx="44.2" cy="195.5" rx="20.9" ry="20.6"/>
</svg>
