<?xml version="1.0" encoding="utf-8"?>
<!-- Generator: Adobe Illustrator 26.3.1, SVG Export Plug-In . SVG Version: 6.00 Build 0)  -->
<svg version="1.1" id="Layer_1" xmlns="http://www.w3.org/2000/svg" xmlns:xlink="http://www.w3.org/1999/xlink" x="0px" y="0px"
	 viewBox="0 0 892.2 397.4" style="enable-background:new 0 0 892.2 397.4;" xml:space="preserve">
<style type="text/css">
	.st0{clip-path:url(#SVGID_00000162311841222723761410000012475687771989538963_);}
	.st1{clip-path:url(#SVGID_00000094593138814334741020000014580996019974140544_);}
	.st2{fill:#11162D;}
	.st3{fill:none;}
	.st4{fill:#379BA5;}
</style>
<g id="Layer_2_00000145053249677936038410000007668406980979613329_">
</g>
<g>
	<g>
		<g>
			<defs>
				<path id="SVGID_1_" d="M829.1,127.6c-24.8,0-45.1-20-45.1-44.6s20.2-44.6,45.1-44.6s45.1,20,45.1,44.6S853.9,127.6,829.1,127.6z
					 M829.1,63.2c-11.2,0-20.3,8.9-20.3,19.8s9.1,19.8,20.3,19.8s20.3-8.9,20.3-19.8S840.3,63.2,829.1,63.2z"/>
			</defs>
			<clipPath id="SVGID_00000081615389385326807010000014837445062251482814_">
				<use xlink:href="#SVGID_1_"  style="overflow:visible;"/>
			</clipPath>
			<g style="clip-path:url(#SVGID_00000081615389385326807010000014837445062251482814_);">
				<g>
					<g>
						<defs>
							<rect id="SVGID_00000039829720064090413560000004106364958148913596_" x="779" y="33.5" width="100.1" height="99.2"/>
						</defs>
						<clipPath id="SVGID_00000021828828854286080440000012944245997560706689_">
							<use xlink:href="#SVGID_00000039829720064090413560000004106364958148913596_"  style="overflow:visible;"/>
						</clipPath>
						<g style="clip-path:url(#SVGID_00000021828828854286080440000012944245997560706689_);">
							
								<image style="overflow:visible;enable-background:new    ;" width="210" height="210" xlink:href="81B2CCB7.jpg"  transform="matrix(0.4766 0 0 0.4766 779.1599 32.9599)">
							</image>
						</g>
					</g>
				</g>
			</g>
		</g>
	</g>
</g>
<g>
	<polygon class="st2" points="137.5,237.3 212.9,378.5 301.2,397.4 175.6,188.2 	"/>
	<polyline class="st2" points="154.8,162.3 288.9,2.5 194,23.9 67.8,185.1 66.1,185.1 66.1,23.9 3.2,23.9 3.2,378.5 66.1,378.5 
		66.1,275.1 117,211.7 	"/>
	<g>
		<g>
			<path class="st3" d="M330.3,132c-26.6,0-42.6,24.2-42.6,60.6s16,60.3,42.6,60.3s42.6-23.9,42.6-60.3
				C372.8,156.2,356.9,132,330.3,132z"/>
			<path class="st2" d="M330.3,97.2c-45.2,0-86.3,34.9-86.3,95.3c0,60.1,41.1,95,86.3,95s86.3-34.9,86.3-95
				C416.6,132.1,375.5,97.2,330.3,97.2z M330.3,252.8c-26.6,0-42.6-23.9-42.6-60.3s16-60.6,42.6-60.6s42.6,24.2,42.6,60.6
				C372.8,228.9,356.9,252.8,330.3,252.8z"/>
		</g>
	</g>
	<path class="st2" d="M711.9,177.2c-18.8-6.9-36.3-12.1-36.3-25.8c0-10.9,8.3-19.2,25.7-19.2c13.6,0,36.3,6.2,48.4,15.1l-6.1-35.1
		c-14.1-10.9-19.1-10.6-43.3-10.6c-38.8,0-63.1,21.7-63.1,51.8c0,28.9,26,42,48.7,50.5c18.5,7.1,37.3,13.6,37.3,28.1
		c0,11.9-8.9,20.8-27.8,20.8c-17.6,0-26.2-2.7-41.6-14.7l-25.2,21.2c16.9,14,41.9,24.1,65.6,24.1c43.8,0,67.3-24,67.3-53.8
		C761.6,197.2,735.4,185.9,711.9,177.2z"/>
	<g>
		<path class="st2" d="M489.6,125.6"/>
		<path class="st2" d="M484.7,129.2l-1.5-11.5l-34.9-12v173.4H489V158"/>
		<path class="st2" d="M542.7,101.5c-21.8,0-38.5,10.6-44.7,17.5l4.5,27.4c3.3-4.3,12.6-10,25.9-10c18.8,0,27,10.7,27,39.2v103.5
			H596V170.4C596,126.6,579.8,101.5,542.7,101.5z"/>
	</g>
</g>
<g>
	<g>
		<path class="st4" d="M325.5,305.5H350v6.1h-17.3V322h14.7v6.1h-14.7v12.1h17.9v6.1h-25.2v-40.8H325.5z"/>
		<path class="st4" d="M358.4,315.7h5.9l0.5,4.1h0.2c2.7-2.7,5.9-4.9,10-4.9c6.6,0,9.4,4.4,9.4,12.2v19.2h-7.2V328
			c0-5-1.4-6.9-4.8-6.9c-2.7,0-4.5,1.3-7,3.8v21.4h-7.2v-30.6H358.4z"/>
		<path class="st4" d="M391.2,351.8c0-2.6,1.6-4.8,4.4-6.5v-0.2c-1.6-1-2.8-2.6-2.8-5.1c0-2.4,1.6-4.5,3.4-5.7V334
			c-2.1-1.5-4-4.5-4-8.1c0-7,5.7-11,12.1-11c1.7,0,3.3,0.3,4.5,0.7h10.9v5.3h-5.6c1,1.1,1.7,3,1.7,5.1c0,6.8-5.2,10.4-11.6,10.4
			c-1.3,0-2.8-0.3-4.1-0.8c-0.9,0.8-1.5,1.6-1.5,2.9c0,1.7,1.2,2.8,5,2.8h5.4c7.3,0,11.2,2.3,11.2,7.6c0,6-6.3,10.8-16.3,10.8
			C396.6,359.8,391.2,357.2,391.2,351.8z M413.3,350.2c0-2.4-1.9-3.1-5.4-3.1h-4.2c-1.6,0-3-0.1-4.1-0.4c-1.6,1.2-2.4,2.6-2.4,4
			c0,2.8,3,4.4,7.8,4.4C410,355.2,413.3,352.8,413.3,350.2z M409.6,325.9c0-3.8-2.3-6-5.3-6s-5.3,2.2-5.3,6c0,3.9,2.4,6.2,5.3,6.2
			S409.6,329.8,409.6,325.9z"/>
		<path class="st4" d="M424.9,306.2c0-2.4,1.9-4.1,4.4-4.1s4.4,1.6,4.4,4.1c0,2.4-1.9,4.1-4.4,4.1
			C426.8,310.3,424.9,308.6,424.9,306.2z M425.7,315.7h7.2v30.6h-7.2V315.7z"/>
		<path class="st4" d="M442,315.7h5.9l0.5,4.1h0.2c2.7-2.7,5.9-4.9,10-4.9c6.6,0,9.4,4.4,9.4,12.2v19.2h-7.2V328
			c0-5-1.4-6.9-4.8-6.9c-2.7,0-4.5,1.3-7,3.8v21.4h-7V315.7z"/>
		<path class="st4" d="M474.9,331c0-9.9,6.9-16.1,14.1-16.1c8.3,0,12.6,6,12.6,14.5c0,1.4-0.1,2.7-0.3,3.5h-19.4
			c0.6,5.4,4.1,8.5,9,8.5c2.6,0,4.9-0.8,7.1-2.2l2.4,4.5c-2.9,2-6.6,3.3-10.5,3.3C481.5,347,474.9,341.1,474.9,331z M495.4,328.1
			c0-4.7-2.1-7.6-6.3-7.6c-3.6,0-6.7,2.7-7.3,7.6H495.4z"/>
		<path class="st4" d="M506.5,331c0-9.9,6.9-16.1,14.1-16.1c8.3,0,12.6,6,12.6,14.5c0,1.4-0.1,2.7-0.3,3.5h-19.4
			c0.6,5.4,4.1,8.5,9,8.5c2.6,0,4.9-0.8,7.1-2.2l2.4,4.5c-2.9,2-6.6,3.3-10.5,3.3C513.1,347,506.5,341.1,506.5,331z M527,328.1
			c0-4.7-2.1-7.6-6.3-7.6c-3.6,0-6.7,2.7-7.3,7.6H527z"/>
		<path class="st4" d="M540.1,315.7h5.9l0.5,5.5h0.2c2.2-4,5.4-6.2,8.7-6.2c1.6,0,2.5,0.2,3.5,0.6l-1.2,6.2
			c-1.1-0.3-1.9-0.5-3.1-0.5c-2.4,0-5.4,1.7-7.2,6.3v18.7h-7.2v-30.6H540.1z"/>
		<path class="st4" d="M562.5,306.2c0-2.4,1.9-4.1,4.4-4.1s4.4,1.6,4.4,4.1c0,2.4-1.9,4.1-4.4,4.1
			C564.4,310.3,562.5,308.6,562.5,306.2z M563.4,315.7h7.2v30.6h-7.2V315.7z"/>
		<path class="st4" d="M579.7,315.7h5.9l0.5,4.1h0.2c2.7-2.7,5.9-4.9,10-4.9c6.6,0,9.4,4.4,9.4,12.2v19.2h-7.2V328
			c0-5-1.4-6.9-4.8-6.9c-2.7,0-4.5,1.3-7,3.8v21.4h-7.2v-30.6H579.7z"/>
		<path class="st4" d="M612.5,351.8c0-2.6,1.6-4.8,4.4-6.5v-0.2c-1.6-1-2.8-2.6-2.8-5.1c0-2.4,1.6-4.5,3.4-5.7V334
			c-2.1-1.5-4-4.5-4-8.1c0-7,5.7-11,12.1-11c1.7,0,3.3,0.3,4.5,0.7H641v5.3h-5.6c1,1.1,1.7,3,1.7,5.1c0,6.8-5.2,10.4-11.6,10.4
			c-1.3,0-2.8-0.3-4.1-0.8c-0.9,0.8-1.5,1.6-1.5,2.9c0,1.7,1.2,2.8,5,2.8h5.4c7.3,0,11.2,2.3,11.2,7.6c0,6-6.3,10.8-16.3,10.8
			C617.9,359.8,612.5,357.2,612.5,351.8z M634.6,350.2c0-2.4-1.9-3.1-5.4-3.1H625c-1.6,0-3-0.1-4.1-0.4c-1.6,1.2-2.4,2.6-2.4,4
			c0,2.8,3,4.4,7.8,4.4C631.3,355.2,634.6,352.8,634.6,350.2z M630.9,325.9c0-3.8-2.3-6-5.3-6s-5.3,2.2-5.3,6c0,3.9,2.4,6.2,5.3,6.2
			S630.9,329.8,630.9,325.9z"/>
		<path class="st4" d="M657.9,326c0-13.3,8.5-21.3,19.3-21.3c5.8,0,9.7,2.5,12.3,5.2l-3.9,4.7c-2-2-4.4-3.5-8.2-3.5
			c-7.2,0-12.1,5.6-12.1,14.8c0,9.3,4.3,14.9,12.5,14.9c2.3,0,4.5-0.6,5.8-1.8v-8.8H676v-5.9h14.2v18c-2.7,2.7-7.4,4.8-13,4.8
			C666.1,347,657.9,339.5,657.9,326z"/>
		<path class="st4" d="M698.6,315.7h5.9l0.5,5.5h0.2c2.2-4,5.4-6.2,8.7-6.2c1.6,0,2.5,0.2,3.5,0.6l-1.2,6.2
			c-1.1-0.3-1.9-0.5-3.1-0.5c-2.4,0-5.4,1.7-7.2,6.3v18.7h-7.2v-30.6H698.6z"/>
		<path class="st4" d="M719.8,331c0-10.2,6.9-16.1,14.6-16.1c7.6,0,14.6,5.9,14.6,16.1c0,10.1-6.9,16-14.6,16
			C726.8,347,719.8,341.1,719.8,331z M741.6,331c0-6.1-2.7-10.2-7.2-10.2s-7.2,4.1-7.2,10.2s2.7,10.2,7.2,10.2
			C738.9,341.2,741.6,337.1,741.6,331z"/>
		<path class="st4" d="M755.7,334.9v-19.2h7.2V334c0,5,1.4,6.9,4.8,6.9c2.7,0,4.5-1.2,6.8-4.2v-21h7.2v30.6h-5.9l-0.5-4.5H775
			c-2.7,3.2-5.7,5.3-9.8,5.3C758.6,347,755.7,342.6,755.7,334.9z"/>
		<path class="st4" d="M790.7,315.7h5.9l0.5,3.3h0.2c2.6-2.2,5.9-4,9.2-4c7.7,0,12,6.1,12,15.6c0,10.5-6.3,16.5-13.1,16.5
			c-2.7,0-5.4-1.2-7.9-3.4l0.2,5.1v9.6h-7.2v-42.7H790.7z M811.2,330.6c0-6.1-2-9.7-6.7-9.7c-2.2,0-4.3,1.1-6.7,3.4v14.3
			c2.2,1.9,4.4,2.5,6.1,2.5C808.1,341.1,811.2,337.5,811.2,330.6z"/>
	</g>
</g>
</svg>
