<?xml version="1.0" encoding="utf-8"?>
<!-- Generator: Adobe Illustrator 26.3.1, SVG Export Plug-In . SVG Version: 6.00 Build 0)  -->
<svg version="1.1" id="Layer_2_00000014598998701495274450000006294469772264745395_"
	 xmlns="http://www.w3.org/2000/svg" xmlns:xlink="http://www.w3.org/1999/xlink" x="0px" y="0px" viewBox="0 0 871 149.6"
	 style="enable-background:new 0 0 871 149.6;" xml:space="preserve">
<style type="text/css">
	.st0{fill:#002748;}
	.st1{fill:#FFFFFF;}
	.st2{fill:#0A3C5E;}
</style>
<g>
	<polygon class="st0" points="33.1,100.7 33.1,149.4 82,149.4 45.9,84.9 	"/>
	<path class="st0" d="M33.8,66.1c3.3-5.8,6.8-11.1,10.1-16.4L77.4,0H33.1v66.1H33.8z"/>
	<polygon class="st0" points="112.3,134.8 112.3,8 69.5,63.6 	"/>
	<polygon class="st1" points="118.5,0 112.3,0 112.3,8 	"/>
	<polygon class="st1" points="112.3,134.8 112.3,149.4 121.1,149.4 	"/>
	<path class="st1" d="M69.5,63.6L112.3,8V0H77.4L43.9,49.7c-3.3,5.3-6.8,10.6-10.1,16.4h-0.7V0H0v149.4h33.1v-48.8l12.7-15.7
		L82,149.4h30.3v-14.6L69.5,63.6z"/>
</g>
<path class="st2" d="M235.7,97.6c0,35.7-25.3,52-51.4,52c-28.5,0-50.4-18.7-50.4-50.2c0-31.5,20.7-51.6,52-51.6
	C215.8,47.8,235.7,68.3,235.7,97.6z M165.2,98.6c0,16.7,7,29.3,19.9,29.3c11.8,0,19.3-11.8,19.3-29.3c0-14.6-5.6-29.3-19.3-29.3
	C170.5,69.3,165.2,84.2,165.2,98.6z M254.5,81.1c0-12.2-0.4-22.5-0.8-31.1H280l1.4,13.4h0.6c4-6.2,14-15.5,30.1-15.5
	c19.9,0,34.9,13.2,34.9,41.9v57.8h-30.3v-54c0-12.6-4.4-21.1-15.3-21.1c-8.4,0-13.4,5.8-15.3,11.4c-0.8,1.8-1.2,4.8-1.2,7.6v56.2
	h-30.3V81.1z M371.1,120.9c5.6,3.4,17.1,7.4,26.1,7.4c9.2,0,13-3.2,13-8.2c0-5-3-7.4-14.4-11.2c-20.1-6.8-27.9-17.7-27.7-29.3
	c0-18.1,15.5-31.9,39.7-31.9c11.4,0,21.5,2.6,27.5,5.6l-5.4,20.9c-4.4-2.4-12.8-5.6-21.1-5.6c-7.4,0-11.6,3-11.6,8
	c0,4.6,3.8,7,15.7,11.2c18.5,6.4,26.3,15.7,26.5,30.1c0,18.1-14.4,31.5-42.3,31.5c-12.8,0-24.1-2.8-31.5-6.8L371.1,120.9z M491.7,22
	V50h21.7v22.3h-21.7v35.3c0,11.8,2.8,17.1,12,17.1c3.8,0,6.8-0.4,9-0.8l0.2,22.9c-4,1.6-11.2,2.6-19.7,2.6c-9.8,0-17.9-3.4-22.7-8.4
	c-5.6-5.8-8.4-15.2-8.4-28.9V72.3h-13V50h13V28.8L491.7,22z M530.9,82c0-14.4-0.4-23.7-0.8-32.1h26.1l1,17.9h0.8
	c5-14.2,16.9-20.1,26.3-20.1c2.8,0,4.2,0,6.4,0.4v28.5c-2.2-0.4-4.8-0.8-8.2-0.8c-11.2,0-18.7,6-20.7,15.3c-0.4,2-0.6,4.4-0.6,6.8
	v49.4h-30.3V82z M698,116.1c0,12.8,0.4,23.1,0.8,31.3h-26.3l-1.4-13.8h-0.6c-3.8,6-13,15.9-30.5,15.9c-19.7,0-34.3-12.4-34.3-42.5
	V50h30.5v52.4c0,14.2,4.6,22.7,15.2,22.7c8.4,0,13.2-5.8,15.2-10.6c0.8-1.8,1-4.2,1-6.6V50H698V116.1z M795.5,145
	c-5.4,2.4-15.5,4.4-27.1,4.4c-31.5,0-51.6-19.1-51.6-49.8c0-28.5,19.5-51.8,55.8-51.8c8,0,16.7,1.4,23.1,3.8l-4.8,22.5
	c-3.6-1.6-9-3-16.9-3c-15.9,0-26.3,11.4-26.1,27.3c0,17.9,12,27.3,26.7,27.3c7.2,0,12.8-1.2,17.3-3L795.5,145z M849.3,22V50H871
	v22.3h-21.7v35.3c0,11.8,2.8,17.1,12,17.1c3.8,0,6.8-0.4,9-0.8l0.2,22.9c-4,1.6-11.2,2.6-19.7,2.6c-9.8,0-17.9-3.4-22.7-8.4
	c-5.6-5.8-8.4-15.2-8.4-28.9V72.3h-13V50h13V28.8L849.3,22z"/>
</svg>
